<?xml version="1.0" encoding="UTF-8"?>
<svg version="1.1" xmlns="http://www.w3.org/2000/svg" width="512" height="512">
<path d="M0 0 C1.27123215 -0.00852997 2.54246429 -0.01705994 3.85221863 -0.02584839 C5.24342359 -0.0251495 6.63462845 -0.02422651 8.02583313 -0.02310181 C9.50491676 -0.02909252 10.98399728 -0.03589931 12.46307373 -0.04345703 C16.46748631 -0.06107217 20.47181332 -0.0658106 24.4762609 -0.0670886 C26.98318407 -0.06851367 29.49008574 -0.07279006 31.99700356 -0.07808304 C40.75760393 -0.09657073 49.51814358 -0.10475551 58.27876282 -0.10317993 C66.4204587 -0.10197991 74.56188891 -0.1230581 82.70351762 -0.15466726 C89.71271808 -0.18090145 96.72183218 -0.1915442 103.73108131 -0.19026911 C107.90877466 -0.18976144 112.0862319 -0.19533584 116.26387596 -0.21662521 C120.19813179 -0.23612773 124.13192925 -0.23605106 128.06620216 -0.22159195 C129.50118817 -0.21951731 130.93620379 -0.22412351 132.37113953 -0.23631287 C147.82620293 -0.35897945 160.74142432 3.72986088 172.15596008 14.39242554 C182.62931141 25.44042092 186.98215802 37.88209252 186.89277649 52.85018921 C186.42346554 66.98148831 180.45253445 78.796539 170.92158508 88.97445679 C159.71667043 99.44784039 146.21309584 102.44020131 131.38252258 102.36508179 C130.32560211 102.36366684 129.26868164 102.36225189 128.17973328 102.36079407 C124.81761293 102.35521493 121.45556017 102.34266623 118.09346008 102.32992554 C115.8083048 102.32490784 113.52314846 102.32034541 111.23799133 102.31625366 C105.64810085 102.30610499 100.05835577 102.28652541 94.46846008 102.26742554 C94.46846008 117.11742554 94.46846008 131.96742554 94.46846008 147.26742554 C100.59795227 147.22101929 106.72744446 147.17461304 113.04267883 147.12680054 C116.94829495 147.10633909 120.85384407 147.0870817 124.75947571 147.07211304 C130.94557079 147.04829112 137.13142687 147.02024712 143.31733704 146.96566772 C148.30999161 146.92189717 153.30238954 146.89822309 158.29522133 146.88791656 C160.19082994 146.88058081 162.08642605 146.86625734 163.98192406 146.84450531 C178.31819806 146.68667539 192.10795793 147.25827344 203.46846008 157.26742554 C208.95134358 163.2820542 211.49207147 168.85468153 212.39814758 176.97055054 C212.47334625 177.6298204 212.54854492 178.28909027 212.62602234 178.96833801 C212.87253213 181.15061521 213.10826722 183.33390188 213.34346008 185.51742554 C213.51340881 187.04846458 213.68366225 188.57946982 213.85420227 190.11044312 C215.91680925 208.80947131 217.69553378 227.53910996 219.46846008 246.26742554 C220.38957581 246.24385986 220.38957581 246.24385986 221.32929993 246.21981812 C224.16725597 246.1566636 227.00506342 246.11818377 229.84346008 246.07992554 C230.8089679 246.05478882 231.77447571 246.0296521 232.76924133 246.00375366 C242.78048866 245.90296929 250.74769382 247.80150726 258.49189758 254.31430054 C265.8767352 261.61157091 267.66992647 270.15815708 267.76173401 280.2482605 C267.76082764 281.24949951 267.75992126 282.25073853 267.75898743 283.28231812 C267.76570465 284.35821701 267.77242188 285.43411591 267.77934265 286.5426178 C267.79826597 290.08244506 267.80224396 293.62208216 267.80439758 297.16195679 C267.81082923 299.63523943 267.81755786 302.10852131 267.8245697 304.58180237 C267.83652816 309.76063805 267.84025197 314.9394071 267.83906555 320.11825562 C267.8388624 326.73552011 267.86616749 333.35235496 267.90060997 339.96951771 C267.92290926 345.07666464 267.92690216 350.18370865 267.9258461 355.29089928 C267.92819737 357.7296058 267.93699396 360.16831536 267.95251083 362.60697365 C267.9722322 366.02640019 267.96630798 369.44490618 267.95429993 372.86434937 C267.96553894 373.85951569 267.97677795 374.85468201 267.98835754 375.88000488 C267.8999496 385.84892932 265.23831301 394.34067589 258.26142883 401.61508179 C250.36523046 408.89197048 242.88477814 409.58256623 232.60517883 409.60336304 C231.4586232 409.61001984 230.31206757 409.61667664 229.13076782 409.62353516 C226.70924987 409.6336421 224.28770418 409.63835278 221.86616516 409.63803101 C218.17908857 409.64239814 214.49321528 409.67872422 210.80635071 409.71664429 C208.44763082 409.72251417 206.08890528 409.72648241 203.73017883 409.72836304 C202.08912422 409.74991959 202.08912422 409.74991959 200.41491699 409.77191162 C190.66772086 409.71429979 183.42699856 406.97669778 176.26142883 400.32601929 C167.71628971 390.51493363 168.46846008 380.05025745 168.46846008 367.26742554 C104.11846008 367.26742554 39.76846008 367.26742554 -26.53153992 367.26742554 C-26.53153992 373.53742554 -26.53153992 379.80742554 -26.53153992 386.26742554 C-29.46794988 396.38172651 -34.08655423 401.75966044 -43.12919617 407.06820679 C-46.98145562 408.99120459 -50.31767476 409.39677463 -54.60038757 409.44442749 C-55.60888763 409.45726273 -56.6173877 409.47009796 -57.65644836 409.48332214 C-59.28457962 409.49440254 -59.28457962 409.49440254 -60.94560242 409.50570679 C-62.07042023 409.51377853 -63.19523804 409.52185028 -64.35414124 409.53016663 C-66.73633794 409.54399466 -69.11855435 409.55472254 -71.5007782 409.56259155 C-75.12209787 409.57976223 -78.74249444 409.62365669 -82.36357117 409.66781616 C-84.6825749 409.67794741 -87.00158636 409.68646216 -89.32060242 409.69320679 C-90.93051559 409.71946892 -90.93051559 409.71946892 -92.57295227 409.7462616 C-101.08412496 409.72202596 -107.64954887 407.80565045 -114.78153992 403.14242554 C-120.75895578 396.89330895 -124.64113673 390.15383781 -124.67198181 381.44316101 C-124.67769196 380.47462692 -124.6834021 379.50609283 -124.68928528 378.50820923 C-124.69040314 377.45204407 -124.691521 376.39587891 -124.69267273 375.30770874 C-124.69763763 374.19016708 -124.70260254 373.07262543 -124.7077179 371.92121887 C-124.72233486 368.22020859 -124.72914131 364.5192412 -124.73466492 360.81820679 C-124.7404174 358.24473571 -124.74617512 355.67126464 -124.75193787 353.09779358 C-124.76110388 348.3884265 -124.76740427 343.67907653 -124.77043462 338.96970206 C-124.77490923 332.05509403 -124.7924316 325.14068428 -124.82143521 318.22613651 C-124.84573226 312.22363774 -124.85338266 306.22123213 -124.85511017 300.21867943 C-124.85813215 297.67226267 -124.86614528 295.12584665 -124.87929535 292.57946205 C-124.89640658 289.01086165 -124.8944627 285.44274011 -124.88798523 281.87411499 C-124.89720001 280.82807098 -124.90641479 279.78202698 -124.91590881 278.70428467 C-124.85951249 268.75359781 -122.75907028 261.57258673 -115.85185242 254.28305054 C-109.26503994 248.56117303 -101.86500328 246.11927663 -93.23075867 246.16976929 C-92.25429382 246.17299194 -91.27782898 246.1762146 -90.27177429 246.17953491 C-89.26437195 246.18791382 -88.2569696 246.19629272 -87.21903992 246.20492554 C-86.19230164 246.20943726 -85.16556335 246.21394897 -84.10771179 246.21859741 C-81.58226109 246.23034369 -79.05693087 246.24676989 -76.53153992 246.26742554 C-76.44828461 245.41044571 -76.3650293 244.55346588 -76.2792511 243.67051697 C-75.49072762 235.56417478 -74.69686123 227.45837703 -73.89710426 219.35313511 C-73.48620291 215.18690413 -73.07731469 211.02049668 -72.67314148 206.85360718 C-72.28246012 202.8266051 -71.88634147 198.80017052 -71.48656845 194.7740612 C-71.33556293 193.2438012 -71.1864632 191.71335181 -71.03937149 190.18271065 C-68.62685242 165.11912216 -68.62685242 165.11912216 -59.71122742 156.50961304 C-50.91976072 149.4266095 -41.1456335 147.10324785 -30.06938171 147.15390015 C-28.81007591 147.15368111 -28.81007591 147.15368111 -27.52532959 147.15345764 C-24.760446 147.15415228 -21.99563044 147.16192365 -19.23075867 147.16976929 C-17.30976396 147.17163506 -15.38876879 147.17305821 -13.46777344 147.17405701 C-8.41913024 147.17786963 -3.37051595 147.18768921 1.67811584 147.19876099 C7.7396154 147.21080362 13.80112464 147.21538332 19.86263275 147.22121429 C29.06459528 147.23090163 38.26649442 147.25006698 47.46846008 147.26742554 C47.46846008 132.41742554 47.46846008 117.56742554 47.46846008 102.26742554 C43.92611633 102.30223022 40.38377258 102.33703491 36.73408508 102.37289429 C33.26876123 102.39635122 29.80344654 102.41453284 26.33808899 102.43222046 C23.94644655 102.44722267 21.55483123 102.467631 19.1632843 102.4937439 C15.70764944 102.53050597 12.25238116 102.54723818 8.79658508 102.56039429 C7.74295776 102.57587814 6.68933044 102.591362 5.60377502 102.60731506 C-10.03163133 102.61078795 -22.9004083 97.52404909 -34.24247742 86.74008179 C-44.22261415 75.9594904 -48.18426514 63.41671714 -48.00224304 48.93685913 C-47.4083183 34.06662628 -40.8932583 21.56594979 -30.19169617 11.34164429 C-21.61744846 4.6559974 -10.9266169 0.03332777 0 0 Z " fill="#7FACE6" transform="translate(176.5315399169922,59.732574462890625)"/>
<path d="M0 0 C0.75204712 -0.00029205 1.50409424 -0.00058411 2.27893066 -0.00088501 C4.74084401 0.0004976 7.2024468 0.01600783 9.66430664 0.03173828 C11.38065933 0.03547222 13.09701416 0.03831739 14.81336975 0.04031372 C19.3129371 0.04792019 23.81237368 0.0675428 28.31188965 0.08972168 C32.91046378 0.11024468 37.50905921 0.1193292 42.10766602 0.12939453 C51.11749811 0.15079172 60.12719912 0.18594929 69.13696289 0.22705078 C69.13696289 4.84705078 69.13696289 9.46705078 69.13696289 14.22705078 C67.20046875 14.23639648 65.26397461 14.24574219 63.26879883 14.25537109 C56.82657471 14.29108198 50.38469743 14.34499487 43.94271469 14.41095352 C40.04195372 14.45024169 36.14141218 14.48252046 32.24047852 14.49804688 C28.46652803 14.51333803 24.69318161 14.54799884 20.91950226 14.5953598 C19.48927349 14.61004666 18.05895841 14.61808439 16.62865448 14.61893463 C4.56726012 14.63329772 -6.3347659 16.14576239 -15.82397461 24.16845703 C-23.31014101 31.72633001 -27.13322416 39.21314877 -27.23803711 49.91455078 C-27.1830755 60.11285313 -24.5520706 68.31198002 -17.90600586 76.21923828 C-7.41090854 86.53373163 5.40503301 86.52669419 19.33227539 86.64111328 C20.59998779 86.65875732 21.8677002 86.67640137 23.17382812 86.69458008 C27.8697485 86.75722981 32.56587349 86.80370363 37.26196289 86.85205078 C47.78071289 86.97580078 58.29946289 87.09955078 69.13696289 87.22705078 C69.13696289 113.62705078 69.13696289 140.02705078 69.13696289 167.22705078 C74.41696289 167.22705078 79.69696289 167.22705078 85.13696289 167.22705078 C88.35512209 170.44520998 88.49109221 171.20577326 88.55380249 175.5213623 C88.54469345 176.56677185 88.54469345 176.56677185 88.53540039 177.63330078 C88.53970566 178.71496521 88.53970566 178.71496521 88.5440979 179.81848145 C88.54613741 181.34156073 88.54061536 182.86466628 88.52807617 184.38769531 C88.51201932 186.71885756 88.52792699 189.0482862 88.54711914 191.37939453 C88.54513669 192.85986711 88.54129296 194.3403386 88.53540039 195.82080078 C88.54147308 196.51774048 88.54754578 197.21468018 88.55380249 197.93273926 C88.51253036 200.77300028 88.44056321 202.76862868 86.84912109 205.17163086 C83.8341432 207.03014354 80.37425416 206.53031549 76.94946289 206.41455078 C74.37133789 206.35267578 71.79321289 206.29080078 69.13696289 206.22705078 C69.13696289 214.80705078 69.13696289 223.38705078 69.13696289 232.22705078 C72.10696289 232.22705078 75.07696289 232.22705078 78.13696289 232.22705078 C92.71706135 234.79290662 103.67218862 240.81784169 114.13696289 251.22705078 C114.6899707 251.74525391 115.24297852 252.26345703 115.81274414 252.79736328 C119.60017629 256.69709126 121.94095967 261.36213951 124.38696289 266.16455078 C124.89960693 267.16723999 124.89960693 267.16723999 125.42260742 268.19018555 C132.38101001 282.40342492 132.1665744 299.84000023 127.53149414 314.79345703 C125.10516065 320.76753864 121.88795558 325.99990698 118.13696289 331.22705078 C117.60329102 331.97599609 117.06961914 332.72494141 116.51977539 333.49658203 C107.15456541 345.30792895 92.31972811 352.52992324 77.70727539 354.96533203 C74.86387509 355.25485759 71.99506547 355.22705078 69.13696289 355.22705078 C69.13696289 359.18705078 69.13696289 363.14705078 69.13696289 367.22705078 C37.12696289 367.22705078 5.11696289 367.22705078 -27.86303711 367.22705078 C-27.86303711 373.49705078 -27.86303711 379.76705078 -27.86303711 386.22705078 C-30.79944707 396.34135175 -35.41805142 401.71928569 -44.46069336 407.02783203 C-48.31295281 408.95082984 -51.64917196 409.35639987 -55.93188477 409.40405273 C-56.94038483 409.41688797 -57.94888489 409.42972321 -58.98794556 409.44294739 C-60.61607681 409.45402779 -60.61607681 409.45402779 -62.27709961 409.46533203 C-63.40191742 409.47340378 -64.52673523 409.48147552 -65.68563843 409.48979187 C-68.06783513 409.50361991 -70.45005155 409.51434778 -72.83227539 409.5222168 C-76.45359506 409.53938747 -80.07399163 409.58328193 -83.69506836 409.62744141 C-86.01407209 409.63757265 -88.33308356 409.6460874 -90.65209961 409.65283203 C-92.26201279 409.67909416 -92.26201279 409.67909416 -93.90444946 409.70588684 C-102.41562215 409.6816512 -108.98104606 407.7652757 -116.11303711 403.10205078 C-122.09045297 396.8529342 -125.97263393 390.11346306 -126.003479 381.40278625 C-126.00918915 380.43425217 -126.01489929 379.46571808 -126.02078247 378.46783447 C-126.02190033 377.41166931 -126.02301819 376.35550415 -126.02416992 375.26733398 C-126.02913483 374.14979233 -126.03409973 373.03225067 -126.03921509 371.88084412 C-126.05383206 368.17983384 -126.0606385 364.47886645 -126.06616211 360.77783203 C-126.07191459 358.20436095 -126.07767231 355.63088988 -126.08343506 353.05741882 C-126.09260107 348.34805174 -126.09890147 343.63870178 -126.10193181 338.92932731 C-126.10640642 332.01471928 -126.12392879 325.10030952 -126.15293241 318.18576175 C-126.17722945 312.18326298 -126.18487985 306.18085737 -126.18660736 300.17830467 C-126.18962934 297.63188791 -126.19764247 295.08547189 -126.21079254 292.5390873 C-126.22790377 288.97048689 -126.2259599 285.40236536 -126.21948242 281.83374023 C-126.2286972 280.78769623 -126.23791199 279.74165222 -126.24740601 278.66390991 C-126.19100969 268.71322306 -124.09056747 261.53221198 -117.18334961 254.24267578 C-110.59653713 248.52079827 -103.19650047 246.07890187 -94.56225586 246.12939453 C-93.58579102 246.13261719 -92.60932617 246.13583984 -91.60327148 246.13916016 C-90.59586914 246.14753906 -89.5884668 246.15591797 -88.55053711 246.16455078 C-87.52379883 246.1690625 -86.49706055 246.17357422 -85.43920898 246.17822266 C-82.91375829 246.18996894 -80.38842806 246.20639514 -77.86303711 246.22705078 C-77.7797818 245.37007095 -77.69652649 244.51309113 -77.61074829 243.63014221 C-76.82222481 235.52380003 -76.02835843 227.41800228 -75.22860146 219.31276035 C-74.8177001 215.14652938 -74.40881189 210.98012192 -74.00463867 206.81323242 C-73.61395731 202.78623034 -73.21783867 198.75979577 -72.81806564 194.73368645 C-72.66706012 193.20342645 -72.5179604 191.67297705 -72.37086868 190.14233589 C-69.95834961 165.07874741 -69.95834961 165.07874741 -61.04272461 156.46923828 C-52.25125791 149.38623475 -42.47713069 147.0628731 -31.40087891 147.11352539 C-30.1415731 147.11330635 -30.1415731 147.11330635 -28.85682678 147.11308289 C-26.09194319 147.11377752 -23.32712763 147.1215489 -20.56225586 147.12939453 C-18.64126116 147.1312603 -16.72026598 147.13268346 -14.79927063 147.13368225 C-9.75062744 147.13749487 -4.70201315 147.14731445 0.34661865 147.15838623 C6.40811821 147.17042887 12.46962745 147.17500857 18.53113556 147.18083954 C27.73309809 147.19052687 36.93499723 147.20969222 46.13696289 147.22705078 C46.13696289 132.37705078 46.13696289 117.52705078 46.13696289 102.22705078 C42.59461914 102.26185547 39.05227539 102.29666016 35.40258789 102.33251953 C31.93726404 102.35597646 28.47194934 102.37415809 25.0065918 102.3918457 C22.61494936 102.40684791 20.22333404 102.42725625 17.83178711 102.45336914 C14.37615225 102.49013121 10.92088397 102.50686342 7.46508789 102.52001953 C6.41146057 102.53550339 5.35783325 102.55098724 4.27227783 102.56694031 C-11.36312853 102.5704132 -24.23190549 97.48367433 -35.57397461 86.69970703 C-45.55411135 75.91911564 -49.51576233 63.37634239 -49.33374023 48.89648438 C-48.73981549 34.02625152 -42.22475549 21.52557503 -31.52319336 11.30126953 C-22.46472717 4.23806021 -11.51486277 -0.11916157 0 0 Z " fill="#A7C9FB" transform="translate(177.863037109375,59.77294921875)"/>
<path d="M0 0 C1.91532397 -0.03244166 3.83068971 -0.06253588 5.74609375 -0.08984375 C7.03012085 -0.1221106 7.03012085 -0.1221106 8.34008789 -0.1550293 C18.77822156 -0.20957145 27.15617175 2.78375111 34.62109375 10.16015625 C41.24468598 18.23770775 41.92074458 27.09663841 41.91162109 37.17504883 C41.91833832 38.25094772 41.92505554 39.32684662 41.93197632 40.43534851 C41.95089964 43.97517577 41.95487763 47.51481287 41.95703125 51.0546875 C41.96346289 53.52797014 41.97019153 56.00125202 41.97720337 58.47453308 C41.98916183 63.65336877 41.99288564 68.83213782 41.99169922 74.01098633 C41.99149607 80.62825082 42.01880116 87.24508568 42.05324364 93.86224842 C42.07554293 98.96939536 42.07953583 104.07643937 42.07847977 109.18362999 C42.08083103 111.62233651 42.08962762 114.06104607 42.1051445 116.49970436 C42.12486587 119.9191309 42.11894164 123.33763689 42.10693359 126.75708008 C42.11817261 127.7522464 42.12941162 128.74741272 42.14099121 129.7727356 C42.05258327 139.74166003 39.39094668 148.2334066 32.4140625 155.5078125 C24.51786413 162.7847012 17.03741181 163.47529694 6.7578125 163.49609375 C5.61125687 163.50275055 4.46470123 163.50940735 3.28340149 163.51626587 C0.86188354 163.52637281 -1.55966215 163.5310835 -3.98120117 163.53076172 C-7.66827777 163.53512886 -11.35415106 163.57145493 -15.04101562 163.609375 C-17.39973551 163.61524488 -19.75846106 163.61921313 -22.1171875 163.62109375 C-23.75824211 163.6426503 -23.75824211 163.6426503 -25.43244934 163.66464233 C-35.17964547 163.6070305 -42.42036777 160.86942849 -49.5859375 154.21875 C-57.05583731 145.64219837 -57.53340703 136.13984351 -57.49584961 125.29638672 C-57.49589493 123.67075554 -57.49589493 123.67075554 -57.49594116 122.01228333 C-57.49355326 118.4339216 -57.48241294 114.85567952 -57.46875 111.27734375 C-57.46428926 110.05114445 -57.45982853 108.82494514 -57.45523262 107.56158829 C-57.43221971 101.73843653 -57.40389209 95.91534922 -57.36868757 90.09225833 C-57.33261628 84.0663021 -57.31138183 78.04071829 -57.3137207 72.01464844 C-57.31524824 65.52999913 -57.28758136 59.04608259 -57.23929024 52.5616188 C-57.22569738 50.09866923 -57.22213151 47.63564202 -57.22904778 45.17266464 C-57.28427443 19.68533702 -57.28427443 19.68533702 -50.37890625 11.16015625 C-41.44406652 2.4669694 -33.46729345 0.69965265 -21.31640625 0.47265625 C-19.46523193 0.4257666 -19.46523193 0.4257666 -17.57666016 0.37792969 C-11.71788292 0.24046708 -5.85859716 0.14741525 0 0 Z " fill="#4A404A" transform="translate(402.37890625,305.83984375)"/>
<path d="M0 0 C1.42155396 0.00725098 1.42155396 0.00725098 2.87182617 0.01464844 C6.03977421 0.04023561 9.20725363 0.08117834 12.375 0.125 C13.53821777 0.13756836 14.70143555 0.15013672 15.89990234 0.16308594 C19.49661721 0.21073743 23.09152276 0.28866497 26.6875 0.375 C28.37576904 0.39602783 28.37576904 0.39602783 30.09814453 0.41748047 C40.05363297 0.71672575 47.24584729 3.33061006 54.58203125 10.125 C59.74243885 15.88127166 62.48259966 22.20625564 62.52217102 29.90457153 C62.52932632 30.86324631 62.53648163 31.82192108 62.54385376 32.80964661 C62.54654266 33.85488998 62.54923157 34.90013336 62.55200195 35.97705078 C62.55857315 37.08323257 62.56514435 38.18941437 62.57191467 39.32911682 C62.59163731 42.99284941 62.60330886 46.656541 62.61328125 50.3203125 C62.61735678 51.57290737 62.6214323 52.82550224 62.62563133 54.11605453 C62.64433919 60.06410516 62.65890472 66.01214279 62.6672433 71.96021569 C62.67700067 78.8058232 62.70328433 85.65110608 62.74374419 92.49659932 C62.77766346 98.44140961 62.78939826 104.38614136 62.79344749 110.33105087 C62.79830961 112.85153274 62.80991278 115.37201123 62.82848549 117.89242935 C62.85291247 121.42740728 62.85190468 124.961545 62.8449707 128.49658203 C62.85778076 129.52968002 62.87059082 130.56277802 62.88378906 131.62718201 C62.82479185 139.91618368 60.78896792 146.43304906 56.25 153.375 C49.88414248 159.4640811 43.14434784 163.20366117 34.30615234 163.30200195 C32.79340225 163.32125481 32.79340225 163.32125481 31.25009155 163.34089661 C30.16467072 163.34828354 29.07924988 163.35567047 27.9609375 163.36328125 C26.83611969 163.371353 25.71130188 163.37942474 24.55239868 163.38774109 C22.17020198 163.40156913 19.78798556 163.412297 17.40576172 163.42016602 C13.78444205 163.43733669 10.16404548 163.48123115 6.54296875 163.52539062 C4.22396502 163.53552187 1.90495355 163.54403662 -0.4140625 163.55078125 C-2.02397568 163.57704338 -2.02397568 163.57704338 -3.66641235 163.60383606 C-12.17758504 163.57960042 -18.74300895 161.66322492 -25.875 157 C-31.85241586 150.75088342 -35.73459682 144.01141227 -35.76544189 135.30073547 C-35.77115204 134.33220139 -35.77686218 133.3636673 -35.78274536 132.36578369 C-35.78386322 131.30961853 -35.78498108 130.25345337 -35.78613281 129.1652832 C-35.79358017 127.48897072 -35.79358017 127.48897072 -35.80117798 125.77879333 C-35.81579495 122.07778306 -35.82260139 118.37681566 -35.828125 114.67578125 C-35.83387748 112.10231017 -35.8396352 109.5288391 -35.84539795 106.95536804 C-35.85456396 102.24600096 -35.86086436 97.53665099 -35.8638947 92.82727653 C-35.86836931 85.9126685 -35.88589168 78.99825874 -35.9148953 72.08371097 C-35.93919234 66.0812122 -35.94684274 60.07880659 -35.94857025 54.07625389 C-35.95159223 51.52983713 -35.95960536 48.98342111 -35.97275543 46.43703651 C-35.98986666 42.86843611 -35.98792279 39.30031458 -35.98144531 35.73168945 C-35.9906601 34.68564545 -35.99987488 33.63960144 -36.0093689 32.56185913 C-35.95297258 22.61117227 -33.85253037 15.4301612 -26.9453125 8.140625 C-18.8265623 1.08797331 -10.32754949 -0.05535087 0 0 Z " fill="#524853" transform="translate(87.625,305.875)"/>
<path d="M0 0 C1.37410535 -0.00571095 2.74820597 -0.01267801 4.12229919 -0.02079773 C7.83525744 -0.03866588 11.54797853 -0.03757264 15.26096678 -0.03185534 C18.36958836 -0.02875379 21.47816502 -0.03486676 24.58678019 -0.04089409 C31.92556763 -0.05491733 39.2642386 -0.05339686 46.60302734 -0.04199219 C54.15348028 -0.03051726 61.70357775 -0.04458094 69.25398386 -0.07138866 C75.75533453 -0.0936005 82.25657407 -0.10017061 88.75795996 -0.09431225 C92.63263505 -0.09095403 96.50708243 -0.09328142 100.38172531 -0.11056328 C104.02792983 -0.1261179 107.67361112 -0.12198379 111.31979561 -0.10325813 C113.28112242 -0.09786084 115.24247321 -0.11202197 117.20375061 -0.12695312 C128.11223753 -0.03669798 137.32708412 2.68198354 145.30712891 10.40405273 C152.28696103 18.82185953 156.15837339 28.04677731 155.74462891 39.03686523 C154.34919157 49.77674899 149.5510455 58.41237663 141.30712891 65.40405273 C134.70442091 69.62023977 127.46476987 72.65187727 119.56573486 72.65802002 C118.44444183 72.66365967 117.3231488 72.66929932 116.1678772 72.67510986 C114.95216034 72.6710614 113.73644348 72.66701294 112.48388672 72.6628418 C111.19209503 72.66634644 109.90030334 72.66985107 108.56936646 72.67346191 C105.03606675 72.6825575 101.50288424 72.67905242 97.96958256 72.67270374 C94.26135515 72.66762477 90.55313749 72.67234086 86.84490967 72.67547607 C80.6141989 72.67911201 74.38353559 72.67432829 68.15283203 72.66479492 C60.96946814 72.65393019 53.78621797 72.657423 46.60285687 72.66844773 C40.4200307 72.6775541 34.23723856 72.678789 28.05440784 72.67357039 C24.36868349 72.67046659 20.6830124 72.66999694 16.99729156 72.67664337 C12.88077687 72.68354816 8.76445473 72.67394963 4.64794922 72.6628418 C2.83651932 72.66891449 2.83651932 72.66891449 0.98849487 72.67510986 C-12.0076359 72.61039558 -22.21983972 70.75253358 -31.80224609 61.32983398 C-39.33191847 52.36823674 -41.58426343 42.65613248 -41.07568359 31.14624023 C-40.56702208 26.17381442 -39.38690084 22.58357551 -36.69287109 18.40405273 C-36.26876953 17.72084961 -35.84466797 17.03764648 -35.40771484 16.33374023 C-26.44559964 3.2026188 -15.19239798 -0.05368275 0 0 Z " fill="#534954" transform="translate(190.69287109375,74.595947265625)"/>
<path d="M0 0 C3.53537971 2.81597105 6.79684004 5.81384797 10 9 C10.82951172 9.77730469 10.82951172 9.77730469 11.67578125 10.5703125 C15.4632134 14.47004048 17.80399678 19.13508873 20.25 23.9375 C20.5917627 24.60595947 20.93352539 25.27441895 21.28564453 25.96313477 C28.24404712 40.17637414 28.02961151 57.61294945 23.39453125 72.56640625 C20.96819776 78.54048786 17.75099269 83.7728562 14 89 C13.46632813 89.74894531 12.93265625 90.49789062 12.3828125 91.26953125 C3.39766412 102.60154675 -11.57627644 110.64374312 -25.7578125 112.78125 C-43.15808827 113.95524451 -58.82306957 111.08747459 -72.6328125 99.859375 C-75.16278706 97.63903911 -77.59717718 95.35685577 -80 93 C-80.56589844 92.45859375 -81.13179687 91.9171875 -81.71484375 91.359375 C-93.63349438 78.84004967 -96.43659598 62.41962179 -96.20703125 45.91796875 C-96.03172676 40.20820482 -95.19427895 35.29300981 -93 30 C-92.54753906 28.89527344 -92.09507812 27.79054688 -91.62890625 26.65234375 C-84.45624736 10.84497319 -72.6468464 0.17003999 -56.8359375 -6.95703125 C-38.42582074 -13.72769403 -16.16928361 -11.14103078 0 0 Z " fill="#A1E686" transform="translate(282,302)"/>
<path d="M0 0 C17.06852664 -0.16043524 17.06852664 -0.16043524 24.39453125 -0.1953125 C29.37598912 -0.21914112 34.3571504 -0.24720267 39.33837891 -0.30175781 C43.35844784 -0.34550616 47.37819831 -0.36919761 51.39848709 -0.37950897 C52.9253706 -0.38684875 54.45223845 -0.40118055 55.97898483 -0.42292023 C68.39558078 -0.59254696 78.77294044 1.071229 88 10 C94.97983213 18.4178068 98.85124449 27.64272457 98.4375 38.6328125 C97.04206267 49.37269626 92.2439166 58.0083239 84 65 C80.78525817 67.05278695 77.56004438 68.64163648 74 70 C73.10211761 70.34465302 72.20423523 70.68930603 71.27914429 71.04440308 C67.70980044 72.08456896 64.78982845 72.24085438 61.07666016 72.22705078 C60.08048172 72.22748886 60.08048172 72.22748886 59.06417847 72.22793579 C56.88900263 72.22655261 54.71417782 72.21103988 52.5390625 72.1953125 C51.02306302 72.19157876 49.50706111 72.18873349 47.99105835 72.18673706 C44.01590218 72.17912902 40.04089394 72.1595051 36.0657959 72.1373291 C32.0035197 72.11680948 27.94121942 72.1077223 23.87890625 72.09765625 C15.91919564 72.07625629 7.95963331 72.04109748 0 72 C0 65.07 0 58.14 0 51 C2.97 49.68 5.94 48.36 9 47 C11.52875149 43.60777239 12.85560912 41.32839612 13.3125 37.125 C13.21883388 35.01993296 13.21883388 35.01993296 12 34 C10.00041636 33.95919217 7.99954746 33.95745644 6 34 C5.01 36.31 4.02 38.62 3 41 C2.01 41 1.02 41 0 41 C0 27.47 0 13.94 0 0 Z " fill="#4B414B" transform="translate(248,75)"/>
<path d="M0 0 C0 40.26 0 80.52 0 122 C-19.6243473 122 -31.33123528 116.40727531 -45 103 C-45.56589844 102.45859375 -46.13179687 101.9171875 -46.71484375 101.359375 C-58.63349438 88.84004967 -61.43659598 72.41962179 -61.20703125 55.91796875 C-61.03172676 50.20820482 -60.19427895 45.29300981 -58 40 C-57.54753906 38.89527344 -57.09507812 37.79054688 -56.62890625 36.65234375 C-49.05656007 19.96412759 -36.10198934 8.61345811 -19 2 C-12.48337304 -0.34305689 -7.24689246 0 0 0 Z " fill="#DEFA9D" transform="translate(247,292)"/>
<path d="M0 0 C9.57152236 -0.09075842 19.14275388 -0.16397804 28.71461105 -0.20724869 C33.16032793 -0.22802773 37.60573239 -0.25616572 42.05126953 -0.30175781 C46.3501513 -0.34556452 50.64873463 -0.36920971 54.94782257 -0.37950897 C56.57911113 -0.38683842 58.21038536 -0.40114921 59.8415451 -0.42292023 C76.06809935 -0.63066897 89.5492123 2.78636301 101.6875 14.125 C112.16085133 25.17299539 116.51369794 37.61466698 116.42431641 52.58276367 C115.95500546 66.71406278 109.98407437 78.52911347 100.453125 88.70703125 C96.67695997 92.23666321 92.65834348 94.78904411 88 97 C87.3930983 97.32777435 86.78619659 97.65554871 86.16090393 97.99325562 C77.77899061 102.01186071 69.2396134 101.50752513 60.1796875 101.390625 C58.46762762 101.38315141 56.7555591 101.37746377 55.04348755 101.37347412 C50.5684386 101.35830562 46.09392076 101.31910132 41.61907959 101.2746582 C37.04039694 101.23351432 32.46162729 101.21542255 27.8828125 101.1953125 C18.92160581 101.15259692 9.96093046 101.08232075 1 101 C1 96.38 1 91.76 1 87 C2.99184326 86.99589111 4.98368652 86.99178223 7.03588867 86.98754883 C13.66572995 86.96804148 20.29512372 86.9255595 26.92473888 86.86790943 C30.93875071 86.83382474 34.95238944 86.80855866 38.96655273 86.80444336 C42.85080899 86.80012012 46.73422627 86.77133062 50.61821938 86.72656822 C52.08949177 86.71372021 53.56086523 86.70923973 55.03218651 86.71384621 C67.96160643 86.74485662 79.55010918 84.54367843 89.12890625 75.24609375 C95.83505092 67.19592008 98.48480987 57.62880408 98.3203125 47.32421875 C97.39242835 37.69459182 92.1513674 29.33871201 85 23 C78.73268939 18.51037376 72.93073877 15.76475636 65.0774231 15.7215271 C63.33594246 15.70478188 63.33594246 15.70478188 61.5592804 15.68769836 C60.29980087 15.68553818 59.04032135 15.68337799 57.74267578 15.68115234 C56.39204818 15.67184603 55.0414263 15.66167631 53.69081116 15.65071106 C50.03633642 15.62347616 46.38190009 15.60828105 42.72735071 15.59528303 C38.90362819 15.57962391 35.07998377 15.55284258 31.25631714 15.5272522 C24.02106428 15.48051357 16.78579665 15.44374572 9.55047023 15.41057932 C1.31101995 15.37232315 -6.9283518 15.32292216 -15.16773582 15.27259517 C-32.11176702 15.16934846 -49.05584372 15.08006451 -66 15 C-66 14.67 -66 14.34 -66 14 C-44.22 14 -22.44 14 0 14 C0 9.38 0 4.76 0 0 Z " fill="#7FABE5" transform="translate(247,60)"/>
<path d="M0 0 C32.34 0 64.68 0 98 0 C98 9.9 98 19.8 98 30 C65.66 30 33.32 30 0 30 C0 20.1 0 10.2 0 0 Z " fill="#4B414B" transform="translate(346,351)"/>
<path d="M0 0 C32.34 0 64.68 0 98 0 C98 9.9 98 19.8 98 30 C65.66 30 33.32 30 0 30 C0 20.1 0 10.2 0 0 Z " fill="#534954" transform="translate(52,351)"/>
<path d="M0 0 C32.01 0 64.02 0 97 0 C95.64400192 9.49198659 92.37849673 14.15277799 85.35546875 20.45703125 C78.14618281 25.17953199 71.32155503 25.45616798 62.94140625 25.43359375 C61.79768051 25.4388356 60.65395477 25.44407745 59.47557068 25.44947815 C57.0659974 25.45587809 54.6563928 25.45458777 52.24682617 25.44604492 C48.57739185 25.43753454 44.90951527 25.46632824 41.24023438 25.49804688 C38.89062546 25.49965918 36.54101382 25.4990808 34.19140625 25.49609375 C32.5597628 25.51294472 32.5597628 25.51294472 30.89515686 25.53013611 C21.18080292 25.44205375 13.94446884 22.68507815 6.796875 16.06640625 C2.70562491 11.36146865 0 6.25342085 0 0 Z " fill="#4B414B" transform="translate(346,444)"/>
<path d="M0 0 C32.34 0 64.68 0 98 0 C95.43073472 10.27706113 92.29942776 16.11395083 83.34375 21.80859375 C76.69508435 25.18833212 70.71207384 25.32078078 63.390625 25.3359375 C61.70764313 25.3459227 61.70764313 25.3459227 59.99066162 25.35610962 C57.62041864 25.36621634 55.25014732 25.37092725 52.87988281 25.37060547 C49.27620843 25.37496827 45.67376961 25.41128244 42.0703125 25.44921875 C39.76042082 25.45508956 37.45052337 25.45905718 35.140625 25.4609375 C34.07362366 25.47530853 33.00662231 25.48967957 31.9072876 25.50448608 C23.42873464 25.45338628 16.85519638 23.52070533 9.75 18.875 C4.29134879 13.16822828 1.30048624 7.80291745 0 0 Z " fill="#524853" transform="translate(52,444)"/>
<path d="M0 0 C32.34 0 64.68 0 98 0 C98 5.28 98 10.56 98 16 C65.66 16 33.32 16 0 16 C0 10.72 0 5.44 0 0 Z " fill="#2B292B" transform="translate(52,428)"/>
<path d="M0 0 C32.34 0 64.68 0 98 0 C98 5.28 98 10.56 98 16 C65.66 16 33.32 16 0 16 C0 10.72 0 5.44 0 0 Z " fill="#2B292B" transform="translate(346,335)"/>
<path d="M0 0 C32.01 0 64.02 0 97 0 C97.495 7.92 97.495 7.92 98 16 C65.66 16 33.32 16 0 16 C0 10.72 0 5.44 0 0 Z " fill="#2B292B" transform="translate(346,428)"/>
<path d="M0 0 C32.01 0 64.02 0 97 0 C97 5.28 97 10.56 97 16 C64.99 16 32.98 16 0 16 C0 10.72 0 5.44 0 0 Z " fill="#2B292B" transform="translate(52,335)"/>
<path d="M0 0 C5.25105442 -0.02464928 10.50207545 -0.04283568 15.75317383 -0.05493164 C17.54094021 -0.05997218 19.32870245 -0.06680454 21.11645508 -0.07543945 C23.68051168 -0.0875173 26.24451397 -0.09323094 28.80859375 -0.09765625 C29.6127623 -0.10281754 30.41693085 -0.10797882 31.24546814 -0.11329651 C33.16401715 -0.11349215 35.08245368 -0.06201983 37 0 C38.76072584 1.76072584 38.12834784 4.0789629 38.13894653 6.4239502 C38.1369223 7.18123413 38.13489807 7.93851807 38.1328125 8.71875 C38.13376923 9.49182495 38.13472595 10.2648999 38.13571167 11.06140137 C38.13639341 12.69897544 38.13453957 14.33655219 38.13037109 15.97412109 C38.12502271 18.48931921 38.13031626 21.00433873 38.13671875 23.51953125 C38.13605797 25.10677123 38.1347768 26.6940111 38.1328125 28.28125 C38.13483673 29.03853394 38.13686096 29.79581787 38.13894653 30.5760498 C38.11495132 35.88504868 38.11495132 35.88504868 37 37 C34.0546443 37.10110353 31.1332244 37.13969279 28.1875 37.1328125 C26.86141724 37.13424759 26.86141724 37.13424759 25.50854492 37.13571167 C23.63557871 37.13639351 21.76261014 37.13453893 19.88964844 37.13037109 C17.01231612 37.12502289 14.13513992 37.13031593 11.2578125 37.13671875 C9.44270799 37.13605797 7.62760357 37.13477681 5.8125 37.1328125 C4.94584717 37.13483673 4.07919434 37.13686096 3.1862793 37.13894653 C-2.88504991 37.11495009 -2.88504991 37.11495009 -4 36 C-4.60481516 28.46721147 -3.54450955 20.95413758 -2.5625 13.5 C-2.42779297 12.4171875 -2.29308594 11.334375 -2.15429688 10.21875 C-1.13616071 2.27232143 -1.13616071 2.27232143 0 0 Z " fill="#FD415E" transform="translate(133,228)"/>
<path d="M0 0 C1.51815699 0.00015911 3.0363194 0.00585313 4.55444336 0.01586914 C5.35208603 0.01728409 6.1497287 0.01869904 6.97154236 0.02015686 C9.52916146 0.02577223 12.08669429 0.03832727 14.64428711 0.05102539 C16.37410356 0.05603841 18.10392137 0.06060166 19.83374023 0.06469727 C24.08312264 0.07574664 28.33244023 0.09302153 32.58178711 0.11352539 C33.97749555 3.33006169 34.86550767 6.12711657 35.17944336 9.61743164 C35.2587207 10.44049805 35.33799805 11.26356445 35.41967773 12.11157227 C35.49379883 12.9578418 35.56791992 13.80411133 35.64428711 14.67602539 C35.79923345 16.36506854 35.95669679 18.0538831 36.11694336 19.74243164 C36.18276611 20.48565674 36.24858887 21.22888184 36.31640625 21.99462891 C36.57989404 24.09841047 37.05297966 26.06294855 37.58178711 28.11352539 C37.75181257 30.808929 37.67056533 33.40578977 37.58178711 36.11352539 C35.68555509 38.00975741 32.91808351 37.24250165 30.39550781 37.25247192 C29.09552856 37.24943558 29.09552856 37.24943558 27.76928711 37.24633789 C26.44320435 37.24777298 26.44320435 37.24777298 25.09033203 37.24923706 C23.21736581 37.24991891 21.34439725 37.24806432 19.47143555 37.24389648 C16.59410323 37.23854828 13.71692703 37.24384132 10.83959961 37.25024414 C9.0244951 37.24958336 7.20939068 37.2483022 5.39428711 37.24633789 C4.52763428 37.24836212 3.66098145 37.25038635 2.76806641 37.25247192 C-3.3032628 37.22847548 -3.3032628 37.22847548 -4.41821289 36.11352539 C-4.51912764 33.53163093 -4.55792788 30.97706039 -4.55102539 28.39477539 C-4.55198212 27.62170044 -4.55293884 26.84862549 -4.55392456 26.05212402 C-4.5546063 24.41454996 -4.55275246 22.7769732 -4.54858398 21.1394043 C-4.5432356 18.62420619 -4.54852915 16.10918666 -4.55493164 13.59399414 C-4.55427086 12.00675416 -4.55298969 10.41951429 -4.55102539 8.83227539 C-4.55304962 8.07499146 -4.55507385 7.31770752 -4.55715942 6.53747559 C-4.52829157 0.15039323 -4.52829157 0.15039323 0 0 Z " fill="#FE405C" transform="translate(329.418212890625,227.886474609375)"/>
<path d="M0 0 C32.01 0 64.02 0 97 0 C97 4.95 97 9.9 97 15 C64.99 15 32.98 15 0 15 C0 10.05 0 5.1 0 0 Z " fill="#2B292B" transform="translate(346,382)"/>
<path d="M0 0 C31.68 0 63.36 0 96 0 C96 4.95 96 9.9 96 15 C64.32 15 32.64 15 0 15 C0 10.05 0 5.1 0 0 Z " fill="#2B292B" transform="translate(53,382)"/>
<path d="M0 0 C0.67530258 -0.00287018 1.35060516 -0.00574036 2.04637146 -0.00869751 C3.46931805 -0.01073321 4.89229295 -0.00523782 6.31518555 0.00732422 C8.49265994 0.02341213 10.66828555 0.00744823 12.84570312 -0.01171875 C14.23047284 -0.00973672 15.61524141 -0.00589387 17 0 C18.25756104 0.00338379 19.51512207 0.00676758 20.81079102 0.01025391 C23.93359375 0.3984375 23.93359375 0.3984375 25.84423828 1.45825195 C27.53220548 4.46458887 27.34101555 7.48451004 27.296875 10.83984375 C27.29762276 11.92506569 27.29762276 11.92506569 27.29838562 13.0322113 C27.29604764 14.55950675 27.28633528 16.08680622 27.26977539 17.61401367 C27.24614443 19.95591523 27.24922066 22.2966811 27.25585938 24.63867188 C27.25028374 26.12240264 27.24317457 27.6061286 27.234375 29.08984375 C27.23574211 30.14299522 27.23574211 30.14299522 27.23713684 31.21742249 C27.16464226 36.16738899 27.16464226 36.16738899 24.93359375 38.3984375 C22.37631435 38.61022632 19.92996061 38.70242619 17.37109375 38.69921875 C16.62400146 38.70350388 15.87690918 38.707789 15.10717773 38.71220398 C13.52686579 38.71794963 11.94652739 38.7184458 10.36621094 38.71411133 C7.94290287 38.71094965 5.5208134 38.73441158 3.09765625 38.75976562 C1.56380363 38.76203837 0.02994771 38.76274223 -1.50390625 38.76171875 C-2.23101807 38.7709285 -2.95812988 38.78013824 -3.70727539 38.78962708 C-5.75 38.77075195 -5.75 38.77075195 -9.06640625 38.3984375 C-12.3751145 33.43537513 -11.43827845 27.47934824 -11.43701172 21.66503906 C-11.44139132 19.40613779 -11.47773636 17.14918139 -11.515625 14.890625 C-11.52149223 13.45573585 -11.52546225 12.02083742 -11.52734375 10.5859375 C-11.53556152 9.28011719 -11.5437793 7.97429687 -11.55224609 6.62890625 C-11.06640625 3.3984375 -11.06640625 3.3984375 -9.47924805 1.47412109 C-6.2145566 0.01866925 -3.57242033 0.0096039 0 0 Z " fill="#FBB458" transform="translate(239.06640625,226.6015625)"/>
<path d="M0 0 C5.61 0 11.22 0 17 0 C17 12.21 17 24.42 17 37 C11.39 37 5.78 37 0 37 C-2.495784 33.256324 -2.25793785 31.24879488 -2.265625 26.77734375 C-2.26753845 26.0760585 -2.2694519 25.37477325 -2.27142334 24.65223694 C-2.27278267 23.17204428 -2.26910382 21.69183959 -2.26074219 20.21166992 C-2.25002255 17.94227456 -2.2606537 15.67366789 -2.2734375 13.40429688 C-2.27211617 11.96614408 -2.26955434 10.52799178 -2.265625 9.08984375 C-2.26336914 7.77878662 -2.26111328 6.46772949 -2.25878906 5.11694336 C-2 2 -2 2 0 0 Z " fill="#FCDC57" transform="translate(230,228)"/>
<path d="M0 0 C3.6578218 2.03993908 5.66946174 3.50419262 8 7 C8.69920885 11.79689791 8.71482085 15.77459282 6.25 20 C3.55526489 22.3953201 1.45985147 23.87464603 -2.18359375 24.1875 C-8.14287002 23.69175431 -8.14287002 23.69175431 -10.66015625 21.66015625 C-13.36628951 18.4333093 -14.89540532 15.90648725 -15.375 11.75 C-14.87558843 6.75588426 -13.55256956 5.47182934 -10 2 C-6.7421033 -0.31205572 -3.93744642 -0.47249357 0 0 Z " fill="#CCEAF8" transform="translate(302,100)"/>
<path d="M0 0 C3.51732742 1.28517733 5.4770624 2.37247488 7.875 5.25 C9.33017877 8.80710366 9.46888682 11.18192158 9 15 C7.38679279 18.05357079 5.96939098 20.23833566 3.25 22.375 C-0.22994329 23.34165091 -3.463848 23.68551123 -7 23 C-10.02089981 21.2524257 -12.41608883 19.16782234 -14 16 C-14.53118173 12.20584481 -14.85089348 8.53668822 -12.953125 5.109375 C-8.87764639 0.17085387 -6.27865897 -0.41857726 0 0 Z " fill="#CEEDFA" transform="translate(196,98)"/>
<path d="M0 0 C3.125 0.375 3.125 0.375 6 1 C6.66 2.98 7.32 4.96 8 7 C10.31 7 12.62 7 15 7 C15.99 4.69 16.98 2.38 18 0 C20.875 -0.125 20.875 -0.125 24 0 C24.66 0.66 25.32 1.32 26 2 C25.79162703 7.41769729 24.48522192 10.85541178 21 15 C16.634442 17.910372 13.20499921 18.6506249 8 18 C3.70955665 15.72858881 0.52201862 13.17103079 -2 9 C-2.375 5.3125 -2.375 5.3125 -2 2 C-1.34 1.34 -0.68 0.68 0 0 Z " fill="#CBE9F7" transform="translate(236,108)"/>
</svg>
